<mxfile host="app.diagrams.net" modified="2020-11-24T00:00:39.984Z" agent="5.0 (Windows)" etag="dDy5T-hOt3Xikz84tH8s" version="13.10.1" type="github">
  <diagram id="C5RBs43oDa-KdzZeNtuy" name="Page-1">
    <mxGraphModel dx="1422" dy="791" grid="1" gridSize="10" guides="1" tooltips="1" connect="1" arrows="1" fold="1" page="1" pageScale="1" pageWidth="827" pageHeight="1169" math="0" shadow="0">
      <root>
        <mxCell id="WIyWlLk6GJQsqaUBKTNV-0" />
        <mxCell id="WIyWlLk6GJQsqaUBKTNV-1" parent="WIyWlLk6GJQsqaUBKTNV-0" />
        <mxCell id="bddTl7PhnCjg6YFo3-Fc-0" value="&lt;font color=&quot;#ffffff&quot;&gt;&amp;lt;&amp;lt;Entity&amp;gt;&amp;gt;&lt;br&gt;&lt;/font&gt;&lt;div&gt;&lt;b&gt;&lt;font color=&quot;#ffffff&quot;&gt;Utente Autenticato&lt;/font&gt;&lt;/b&gt;&lt;br&gt;&lt;/div&gt;" style="html=1;fillColor=#000066;" parent="WIyWlLk6GJQsqaUBKTNV-1" vertex="1">
          <mxGeometry x="354" y="310" width="120" height="50" as="geometry" />
        </mxCell>
        <mxCell id="bddTl7PhnCjg6YFo3-Fc-1" value="&lt;font color=&quot;#ffffff&quot;&gt;&amp;lt;&amp;lt;Control&amp;gt;&amp;gt;&lt;br&gt;&lt;/font&gt;&lt;div&gt;&lt;b&gt;&lt;font color=&quot;#ffffff&quot;&gt;EliminazonePrenotazioneControl&lt;/font&gt;&lt;/b&gt;&lt;br&gt;&lt;/div&gt;" style="html=1;fillColor=#000066;" parent="WIyWlLk6GJQsqaUBKTNV-1" vertex="1">
          <mxGeometry x="268" y="200" width="291" height="50" as="geometry" />
        </mxCell>
        <mxCell id="bddTl7PhnCjg6YFo3-Fc-2" value="&lt;font color=&quot;#ffffff&quot;&gt;&amp;lt;&amp;lt;Boundary&amp;gt;&amp;gt;&lt;br&gt;&lt;/font&gt;&lt;div&gt;&lt;b&gt;&lt;font color=&quot;#ffffff&quot;&gt;EliminazionePrenotazioneView&lt;/font&gt;&lt;/b&gt;&lt;br&gt;&lt;/div&gt;" style="html=1;fillColor=#000066;" parent="WIyWlLk6GJQsqaUBKTNV-1" vertex="1">
          <mxGeometry x="283" y="90" width="262" height="50" as="geometry" />
        </mxCell>
        <mxCell id="bddTl7PhnCjg6YFo3-Fc-5" value="" style="endArrow=none;html=1;entryX=0.5;entryY=1;entryDx=0;entryDy=0;exitX=0.5;exitY=0;exitDx=0;exitDy=0;" parent="WIyWlLk6GJQsqaUBKTNV-1" source="bddTl7PhnCjg6YFo3-Fc-0" target="bddTl7PhnCjg6YFo3-Fc-1" edge="1">
          <mxGeometry width="50" height="50" relative="1" as="geometry">
            <mxPoint x="390" y="430" as="sourcePoint" />
            <mxPoint x="440" y="380" as="targetPoint" />
          </mxGeometry>
        </mxCell>
        <mxCell id="bddTl7PhnCjg6YFo3-Fc-6" value="" style="endArrow=none;html=1;entryX=0.5;entryY=1;entryDx=0;entryDy=0;exitX=0.5;exitY=0;exitDx=0;exitDy=0;" parent="WIyWlLk6GJQsqaUBKTNV-1" source="bddTl7PhnCjg6YFo3-Fc-1" target="bddTl7PhnCjg6YFo3-Fc-2" edge="1">
          <mxGeometry width="50" height="50" relative="1" as="geometry">
            <mxPoint x="440" y="160" as="sourcePoint" />
            <mxPoint x="440" y="100" as="targetPoint" />
          </mxGeometry>
        </mxCell>
        <mxCell id="TtzGUZlj6YNEEuJ709Ib-0" value="" style="endArrow=none;html=1;entryX=0.5;entryY=1;entryDx=0;entryDy=0;exitX=0.5;exitY=0;exitDx=0;exitDy=0;" edge="1" parent="WIyWlLk6GJQsqaUBKTNV-1" source="TtzGUZlj6YNEEuJ709Ib-2" target="bddTl7PhnCjg6YFo3-Fc-1">
          <mxGeometry width="50" height="50" relative="1" as="geometry">
            <mxPoint x="640" y="310" as="sourcePoint" />
            <mxPoint x="440" y="380" as="targetPoint" />
          </mxGeometry>
        </mxCell>
        <mxCell id="TtzGUZlj6YNEEuJ709Ib-2" value="&lt;font color=&quot;#ffffff&quot;&gt;&amp;lt;&amp;lt;Entity&amp;gt;&amp;gt;&lt;br&gt;&lt;/font&gt;&lt;div&gt;&lt;b&gt;&lt;font color=&quot;#ffffff&quot;&gt;Prenotazioni Repository&lt;/font&gt;&lt;/b&gt;&lt;br&gt;&lt;/div&gt;" style="html=1;fillColor=#000066;" vertex="1" parent="WIyWlLk6GJQsqaUBKTNV-1">
          <mxGeometry x="580" y="310" width="180" height="50" as="geometry" />
        </mxCell>
      </root>
    </mxGraphModel>
  </diagram>
</mxfile>
